<?xml version="1.0" encoding="iso-8859-1"?><!-- Generator: Adobe Illustrator 19.0.0, SVG Export Plug-In . SVG Version: 6.00 Build 0) --><svg xmlns="http://www.w3.org/2000/svg" xmlns:xlink="http://www.w3.org/1999/xlink" version="1.1" id="Layer_1" x="0px" y="0px" viewBox="0 0 511.799 511.799" style="enable-background:new 0 0 511.799 511.799;" xml:space="preserve" width="512" height="512"><g><g><path style="fill:#E7B835;" d="M173.449,218.13l-49.681,18.674H78.667L40.739,218.13v250.568 c0,18.655,15.123,33.778,33.778,33.778h98.932l40.52-116.98L173.449,218.13z"/><path style="fill:#FFCD38;" d="M40.739,218.13L9.602,284.65c-7.159,15.294,4.003,32.843,20.889,32.843h81.777 c8.951,0,17.095-5.179,20.89-13.287l40.291-86.076H40.739z"/><path style="fill:#FFCD38;" d="M430.312,251.956H243.215l-69.765-33.826v284.346h263.832c18.655,0,33.778-15.123,33.778-33.778 V218.13L430.312,251.956z"/><path style="fill:#3AC7B4;" d="M312.548,68.122l-51.54-56.543c-2.742-3.008-7.476-3.008-10.218,0l-51.54,56.543 c-4.046,4.439-0.897,11.57,5.109,11.57h20.313v76.443c0,5.973,4.842,10.816,10.816,10.816h40.822 c5.973,0,10.816-4.842,10.816-10.816V79.692h20.313C313.445,79.692,316.594,72.56,312.548,68.122z"/><path style="fill:#E7B835;" d="M502.196,284.65l-31.137-66.52h-297.61l40.291,86.076c3.795,8.107,11.938,13.287,20.89,13.287 h246.677C498.193,317.493,509.355,299.944,502.196,284.65z"/></g><g><path d="M250.076,400.716c4.142,0,7.5-3.358,7.5-7.5v-15.167c0-4.142-3.358-7.5-7.5-7.5s-7.5,3.358-7.5,7.5v15.167 C242.576,397.358,245.934,400.716,250.076,400.716z"/><path d="M417.675,400.716c4.142,0,7.5-3.358,7.5-7.5v-15.167c0-4.142-3.358-7.5-7.5-7.5s-7.5,3.358-7.5,7.5v15.167 C410.175,397.358,413.533,400.716,417.675,400.716z"/><path d="M333.876,408.811c10.226,0,19.822-4.27,26.33-11.714c2.726-3.119,2.408-7.857-0.711-10.583 c-3.118-2.726-7.856-2.408-10.583,0.711c-3.659,4.186-9.139,6.586-15.036,6.586c-5.896,0-11.377-2.401-15.036-6.586 c-2.726-3.119-7.464-3.437-10.583-0.711c-3.119,2.726-3.437,7.464-0.711,10.583C314.054,404.541,323.65,408.811,333.876,408.811z"/><path d="M235.482,174.45h40.822c10.099,0,18.315-8.216,18.315-18.315V87.192h12.813c5.793,0,10.845-3.292,13.185-8.591 c2.34-5.299,1.37-11.25-2.533-15.532l-51.54-56.542c-2.725-2.989-6.607-4.704-10.652-4.704c-4.044,0-7.927,1.714-10.652,4.704 l-51.539,56.542c-3.903,4.281-4.874,10.232-2.534,15.532s7.392,8.591,13.185,8.591h12.813v68.943 C217.166,166.234,225.382,174.45,235.482,174.45z M205.682,72.192l50.211-55.085l50.211,55.085H287.12c-4.142,0-7.5,3.358-7.5,7.5 v76.443c0,1.828-1.487,3.315-3.315,3.315h-40.822c-1.829,0-3.316-1.487-3.316-3.315V79.692c0-4.142-3.358-7.5-7.5-7.5H205.682z"/><path d="M30.485,324.993h2.747v143.705c0,22.761,18.518,41.278,41.278,41.278h362.765c22.761,0,41.278-18.518,41.278-41.278 V324.993c0,0,2.746,0,2.747,0c21.986,0,37.009-23.595,27.682-43.523l-31.137-66.52c-1.234-2.636-3.882-4.32-6.792-4.32h-60.336 c-4.142,0-7.5,3.358-7.5,7.5s3.358,7.5,7.5,7.5h55.565c0,0,29.079,62.123,29.114,62.199c4.767,10.183-2.903,22.164-14.097,22.164 c0,0-246.621,0-246.677,0c-5.926,0-11.585-3.596-14.097-8.967l-35.292-75.396h195.483c4.142,0,7.5-3.358,7.5-7.5 s-3.358-7.5-7.5-7.5H40.733c-2.911,0-5.559,1.684-6.792,4.32c0,0-31.136,66.517-31.137,66.52 C-6.477,301.297,8.447,324.993,30.485,324.993z M234.624,324.993h228.93v143.705c0,14.49-11.789,26.278-26.278,26.278H180.943 v-37.274c0-4.035-3.459-7.5-7.5-7.5c-4.038,0-7.5,3.47-7.5,7.5v37.274H74.511c-14.49,0-26.278-11.789-26.278-26.278V324.993 c0,0,64.017,0,64.03,0c11.575,0,22.712-6.989,27.682-17.607l25.999-55.542v175.858c0,4.142,3.358,7.5,7.5,7.5s7.5-3.358,7.5-7.5 V251.844l25.999,55.542C211.948,318.082,222.815,324.993,234.624,324.993z M16.388,287.83l29.115-62.199h116.148l-35.292,75.396 c-2.522,5.39-8.145,8.967-14.097,8.967c0,0-81.645,0-81.777,0C19.279,309.993,11.636,297.984,16.388,287.83z"/></g></g></svg>
